<svg xmlns="http://www.w3.org/2000/svg" viewBox="0 0 48 48">
  <path
    d="M42 21.3C42 13 34 6 24 6S6 13 6 21.3c0 7.6 6.4 14 15 15.2.6 0 1.4.4 1.6 1 .2.4.2 1 0 1.6 0 0 0 1.5-.2 1.8 0 .5-.3 2 1.6 1 2-.8 10.4-6.4 14-11 2.8-3 4-6 4-9.4zm-25 5h-3.6c-.5 0-1-.4-1-1V18c0-.7.5-1 1-1s1 .3 1 1v6.4H17c.5 0 1 .4 1 1 0 .5-.5 1-1 1zm3.7-1c0 .6-.5 1-1 1s-1-.4-1-1V18c0-.7.5-1 1-1s1 .3 1 1v7.4zm8.6 0c0 .5-.3 1-.7 1h-.3c-.3 0-.6 0-.7-.3L24 20.7v4.7c0 .5-.5 1-1 1-.6 0-1-.5-1-1V18c0-.6.3-1 .7-1h.3c.2 0 .5 0 .7.3l3.7 5.2V18c0-.7.4-1 1-1 .4 0 1 .3 1 1v7.4zm5.7-4.7c.6 0 1 .5 1 1 0 .6-.4 1-1 1h-2.6v1.8H35c.6 0 1 .4 1 1 0 .5-.4 1-1 1h-3.5c-.5 0-1-.5-1-1V18c0-.7.5-1 1-1H35c.6 0 1 .3 1 1 0 .4-.4 1-1 1h-2.6v1.6H35z"
    fill="#fff"/>
</svg>
